<?xml version="1.0" encoding="UTF-8" standalone="no"?>
<!-- Created with Inkscape (http://www.inkscape.org/) -->

<svg
   xmlns:dc="http://purl.org/dc/elements/1.1/"
   xmlns:cc="http://creativecommons.org/ns#"
   xmlns:rdf="http://www.w3.org/1999/02/22-rdf-syntax-ns#"
   xmlns:svg="http://www.w3.org/2000/svg"
   xmlns="http://www.w3.org/2000/svg"
   xmlns:sodipodi="http://sodipodi.sourceforge.net/DTD/sodipodi-0.dtd"
   xmlns:inkscape="http://www.inkscape.org/namespaces/inkscape"
   width="210mm"
   height="297mm"
   id="svg2"
   version="1.1"
   inkscape:version="0.48.4 r9939"
   sodipodi:docname="design.svg"
   inkscape:export-filename="D:\Workspace\Python\SeriesAnime\design\design.png"
   inkscape:export-xdpi="74.573318"
   inkscape:export-ydpi="74.573318">
  <defs
     id="defs4" />
  <sodipodi:namedview
     id="base"
     pagecolor="#ffffff"
     bordercolor="#666666"
     borderopacity="1.0"
     inkscape:pageopacity="0.0"
     inkscape:pageshadow="2"
     inkscape:zoom="1.01"
     inkscape:cx="350"
     inkscape:cy="520"
     inkscape:document-units="px"
     inkscape:current-layer="layer1"
     showgrid="false"
     inkscape:window-width="1024"
     inkscape:window-height="553"
     inkscape:window-x="-4"
     inkscape:window-y="-4"
     inkscape:window-maximized="1" />
  <metadata
     id="metadata7">
    <rdf:RDF>
      <cc:Work
         rdf:about="">
        <dc:format>image/svg+xml</dc:format>
        <dc:type
           rdf:resource="http://purl.org/dc/dcmitype/StillImage" />
        <dc:title></dc:title>
      </cc:Work>
    </rdf:RDF>
  </metadata>
  <g
     inkscape:label="Capa 1"
     inkscape:groupmode="layer"
     id="layer1">
    <path
       inkscape:connector-curvature="0"
       id="path3011"
       style="font-size:40px;font-style:normal;font-variant:normal;font-weight:300;font-stretch:normal;text-align:start;line-height:125%;letter-spacing:0px;word-spacing:0px;writing-mode:lr-tb;text-anchor:start;fill:#008080;fill-opacity:1;stroke:none;font-family:Segoe UI Light;-inkscape-font-specification:'Segoe UI Light, Light'"
       d="m 76.442524,415.21933 0,-19.88281 c -2.8e-5,-0.48175 0.07159,-1.85545 0.214844,-4.1211 l -0.07813,0 c -0.403674,1.05471 -0.742215,1.86852 -1.015625,2.44141 l -9.960938,21.5625 -0.625,0 -10,-21.44531 c -0.325527,-0.69008 -0.631516,-1.56899 -0.917969,-2.63672 l -0.09766,0 c 0.09114,1.25002 0.136713,2.49351 0.136719,3.73047 l 0,20.35156 -1.933594,0 0,-28.00781 1.796875,0 10.449219,22.55859 c 0.06509,0.13021 0.136703,0.306 0.214844,0.52734 0.07811,0.22136 0.162744,0.44272 0.253906,0.66407 0.130192,0.33854 0.26691,0.71615 0.410156,1.13281 l 0.117188,0 0.214843,-0.625 c 0.013,-0.0521 0.234358,-0.67057 0.664063,-1.85547 l 10.292969,-22.40234 1.71875,0 0,28.00781 z"
       inkscape:export-filename="D:\Workspace\Python\SeriesAnime\design\path3037.png"
       inkscape:export-xdpi="62.144432"
       inkscape:export-ydpi="62.144432" />
    <path
       inkscape:connector-curvature="0"
       id="path3013"
       style="font-size:40px;font-style:normal;font-variant:normal;font-weight:300;font-stretch:normal;text-align:start;line-height:125%;letter-spacing:0px;word-spacing:0px;writing-mode:lr-tb;text-anchor:start;fill:#b3b3b3;fill-opacity:1;stroke:none;font-family:Segoe UI Light;-inkscape-font-specification:'Segoe UI Light, Light'"
       d="m 86.012836,390.18027 c -0.390628,2e-5 -0.73568,-0.14321 -1.035156,-0.42969 -0.299482,-0.28643 -0.449221,-0.65102 -0.449219,-1.09375 -2e-6,-0.42966 0.152992,-0.77797 0.458985,-1.04492 0.305986,-0.2669 0.647783,-0.40036 1.02539,-0.40039 0.403642,3e-5 0.758459,0.13023 1.064454,0.39062 0.305984,0.26045 0.458978,0.61201 0.458984,1.05469 -6e-6,0.41669 -0.149745,0.77477 -0.449219,1.07422 -0.299484,0.2995 -0.657556,0.44924 -1.074219,0.44922 z m -0.878906,25.03906 0,-20 1.796875,0 0,20 z"
       inkscape:export-filename="D:\Workspace\Python\SeriesAnime\design\path3037.png"
       inkscape:export-xdpi="62.144432"
       inkscape:export-ydpi="62.144432" />
    <path
       inkscape:connector-curvature="0"
       id="path3015"
       style="font-size:40px;font-style:normal;font-variant:normal;font-weight:300;font-stretch:normal;text-align:start;line-height:125%;letter-spacing:0px;word-spacing:0px;writing-mode:lr-tb;text-anchor:start;fill:#b3b3b3;fill-opacity:1;stroke:none;font-family:Segoe UI Light;-inkscape-font-specification:'Segoe UI Light, Light'"
       d="m 92.301899,414.34042 0,-2.16797 c 0.67708,0.58594 1.497392,1.04818 2.460937,1.38672 0.963537,0.33855 1.796869,0.50782 2.5,0.50782 3.138014,0 4.707024,-1.28255 4.707034,-3.84766 -1e-5,-0.88541 -0.34507,-1.64062 -1.03516,-2.26563 -0.69011,-0.62499 -1.809903,-1.26952 -3.359374,-1.93359 -1.914068,-0.83332 -3.258467,-1.69595 -4.033203,-2.58789 -0.774742,-0.89191 -1.162111,-1.9759 -1.162109,-3.25195 -2e-6,-1.62759 0.621742,-2.94269 1.865234,-3.94532 1.243485,-1.00258 2.776686,-1.50388 4.59961,-1.5039 1.718742,2e-5 3.190092,0.35158 4.414062,1.05469 l 0,2.03125 c -1.48439,-0.96353 -3.02084,-1.4453 -4.609375,-1.44532 -1.315111,2e-5 -2.376308,0.34182 -3.183594,1.02539 -0.807296,0.68362 -1.210941,1.57229 -1.210937,2.66602 -4e-6,0.95053 0.253902,1.72202 0.761719,2.31445 0.507807,0.59246 1.627597,1.2728 3.359375,2.04102 2.083322,0.93751 3.515612,1.80665 4.296872,2.60742 0.78124,0.80079 1.17186,1.86524 1.17188,3.19336 -2e-5,1.58854 -0.59572,2.90039 -1.78711,3.93555 -1.19142,1.03515 -2.835297,1.55273 -4.931642,1.55273 -1.927089,0 -3.53516,-0.45573 -4.824219,-1.36719 z"
       inkscape:export-filename="D:\Workspace\Python\SeriesAnime\design\path3037.png"
       inkscape:export-xdpi="62.144432"
       inkscape:export-ydpi="62.144432" />
    <path
       inkscape:connector-curvature="0"
       id="path3017"
       style="font-size:40px;font-style:normal;font-variant:normal;font-weight:300;font-stretch:normal;text-align:start;line-height:125%;letter-spacing:0px;word-spacing:0px;writing-mode:lr-tb;text-anchor:start;fill:#008080;fill-opacity:1;stroke:none;font-family:Segoe UI Light;-inkscape-font-specification:'Segoe UI Light, Light'"
       d="m 119.33315,414.22324 0,-2.20704 c 2.0052,1.27605 4.03645,1.91407 6.09375,1.91407 2.18749,0 3.84764,-0.45247 4.98047,-1.35742 1.1328,-0.90495 1.6992,-2.17122 1.69922,-3.79883 -2e-5,-1.43229 -0.38088,-2.57486 -1.14258,-3.42774 -0.76173,-0.85285 -2.41212,-2.01496 -4.95117,-3.48633 -2.83855,-1.65363 -4.63542,-3.03709 -5.39063,-4.15039 -0.75521,-1.11326 -1.13281,-2.39906 -1.13281,-3.85742 0,-1.97914 0.76822,-3.65883 2.30469,-5.03906 1.53645,-1.38018 3.58723,-2.07028 6.15234,-2.07031 1.66665,3e-5 3.33332,0.27997 5,0.83984 l 0,2.03125 c -1.64064,-0.74216 -3.39194,-1.11325 -5.25391,-1.11328 -1.90105,3e-5 -3.40821,0.4818 -4.52148,1.44531 -1.11329,0.96357 -1.66993,2.18753 -1.66992,3.67188 -1e-5,1.43231 0.38085,2.57163 1.14258,3.41797 0.76171,0.84637 2.40559,1.99871 4.93164,3.45703 2.61717,1.48439 4.35871,2.80274 5.22461,3.95508 0.86586,1.15235 1.29881,2.47722 1.29882,3.9746 -1e-5,2.14845 -0.74546,3.89975 -2.23632,5.25391 -1.4909,1.35417 -3.59702,2.03125 -6.31836,2.03125 -0.96355,0 -2.07358,-0.14974 -3.33008,-0.44922 -1.25652,-0.29948 -2.2168,-0.64453 -2.88086,-1.03515 z"
       inkscape:export-filename="D:\Workspace\Python\SeriesAnime\design\path3037.png"
       inkscape:export-xdpi="62.144432"
       inkscape:export-ydpi="62.144432" />
    <path
       inkscape:connector-curvature="0"
       id="path3019"
       style="font-size:40px;font-style:normal;font-variant:normal;font-weight:300;font-stretch:normal;text-align:start;line-height:125%;letter-spacing:0px;word-spacing:0px;writing-mode:lr-tb;text-anchor:start;fill:#b3b3b3;fill-opacity:1;stroke:none;font-family:Segoe UI Light;-inkscape-font-specification:'Segoe UI Light, Light'"
       d="m 140.17299,405.29745 c 0,2.74741 0.63476,4.89584 1.9043,6.44532 1.26952,1.54948 3.01106,2.32422 5.22461,2.32422 2.23957,0 4.42707,-0.82682 6.5625,-2.48047 l 0,1.91406 c -2.07033,1.47135 -4.38152,2.20703 -6.93359,2.20703 -2.57814,0 -4.66147,-0.92448 -6.25,-2.77344 -1.58855,-1.84895 -2.38282,-4.45963 -2.38282,-7.83203 0,-2.91665 0.83008,-5.37433 2.49024,-7.37304 1.66015,-1.99868 3.81835,-2.99803 6.47461,-2.99805 2.48696,2e-5 4.39451,0.87241 5.72265,2.61719 1.32811,1.7448 1.99217,4.12761 1.99219,7.14843 l 0,0.80078 z m 12.92969,-1.64062 c -0.0781,-2.30467 -0.63153,-4.09504 -1.66016,-5.37109 -1.02866,-1.27603 -2.44793,-1.91405 -4.25781,-1.91407 -1.87501,2e-5 -3.42774,0.62828 -4.6582,1.88477 -1.23048,1.25653 -1.98894,3.05665 -2.27539,5.40039 z"
       inkscape:export-filename="D:\Workspace\Python\SeriesAnime\design\path3037.png"
       inkscape:export-xdpi="62.144432"
       inkscape:export-ydpi="62.144432" />
    <path
       inkscape:connector-curvature="0"
       id="path3021"
       style="font-size:40px;font-style:normal;font-variant:normal;font-weight:300;font-stretch:normal;text-align:start;line-height:125%;letter-spacing:0px;word-spacing:0px;writing-mode:lr-tb;text-anchor:start;fill:#b3b3b3;fill-opacity:1;stroke:none;font-family:Segoe UI Light;-inkscape-font-specification:'Segoe UI Light, Light'"
       d="m 169.41127,397.09433 c -0.59897,-0.42967 -1.30209,-0.64451 -2.10937,-0.64453 -1.57553,2e-5 -2.89714,0.81382 -3.96484,2.4414 -1.06772,1.62762 -1.60157,3.93882 -1.60157,6.9336 l 0,9.39453 -1.75781,0 0,-20 1.75781,0 0,4.43359 0.0781,0 c 0.45572,-1.52342 1.17838,-2.70831 2.16797,-3.55468 0.98957,-0.84634 2.1354,-1.26951 3.4375,-1.26954 0.74217,3e-5 1.40623,0.11721 1.99218,0.35157 z"
       inkscape:export-filename="D:\Workspace\Python\SeriesAnime\design\path3037.png"
       inkscape:export-xdpi="62.144432"
       inkscape:export-ydpi="62.144432" />
    <path
       inkscape:connector-curvature="0"
       id="path3023"
       style="font-size:40px;font-style:normal;font-variant:normal;font-weight:300;font-stretch:normal;text-align:start;line-height:125%;letter-spacing:0px;word-spacing:0px;writing-mode:lr-tb;text-anchor:start;fill:#b3b3b3;fill-opacity:1;stroke:none;font-family:Segoe UI Light;-inkscape-font-specification:'Segoe UI Light, Light'"
       d="m 174.05971,390.18027 c -0.39063,2e-5 -0.73568,-0.14321 -1.03515,-0.42969 -0.29949,-0.28643 -0.44923,-0.65102 -0.44922,-1.09375 -1e-5,-0.42966 0.15299,-0.77797 0.45898,-1.04492 0.30599,-0.2669 0.64778,-0.40036 1.02539,-0.40039 0.40364,3e-5 0.75846,0.13023 1.06445,0.39062 0.30599,0.26045 0.45898,0.61201 0.45899,1.05469 -1e-5,0.41669 -0.14975,0.77477 -0.44922,1.07422 -0.29948,0.2995 -0.65756,0.44924 -1.07422,0.44922 z m -0.8789,25.03906 0,-20 1.79687,0 0,20 z"
       inkscape:export-filename="D:\Workspace\Python\SeriesAnime\design\path3037.png"
       inkscape:export-xdpi="62.144432"
       inkscape:export-ydpi="62.144432" />
    <path
       inkscape:connector-curvature="0"
       id="path3025"
       style="font-size:40px;font-style:normal;font-variant:normal;font-weight:300;font-stretch:normal;text-align:start;line-height:125%;letter-spacing:0px;word-spacing:0px;writing-mode:lr-tb;text-anchor:start;fill:#b3b3b3;fill-opacity:1;stroke:none;font-family:Segoe UI Light;-inkscape-font-specification:'Segoe UI Light, Light'"
       d="m 181.81362,405.29745 c -10e-6,2.74741 0.63476,4.89584 1.90429,6.44532 1.26953,1.54948 3.01106,2.32422 5.22461,2.32422 2.23957,0 4.42707,-0.82682 6.5625,-2.48047 l 0,1.91406 c -2.07032,1.47135 -4.38152,2.20703 -6.93359,2.20703 -2.57813,0 -4.66146,-0.92448 -6.25,-2.77344 -1.58854,-1.84895 -2.38281,-4.45963 -2.38281,-7.83203 0,-2.91665 0.83007,-5.37433 2.49023,-7.37304 1.66015,-1.99868 3.81835,-2.99803 6.47461,-2.99805 2.48697,2e-5 4.39452,0.87241 5.72266,2.61719 1.3281,1.7448 1.99217,4.12761 1.99219,7.14843 l 0,0.80078 z m 12.92969,-1.64062 c -0.0782,-2.30467 -0.63153,-4.09504 -1.66016,-5.37109 -1.02866,-1.27603 -2.44793,-1.91405 -4.25781,-1.91407 -1.87501,2e-5 -3.42775,0.62828 -4.65821,1.88477 -1.23047,1.25653 -1.98893,3.05665 -2.27539,5.40039 z"
       inkscape:export-filename="D:\Workspace\Python\SeriesAnime\design\path3037.png"
       inkscape:export-xdpi="62.144432"
       inkscape:export-ydpi="62.144432" />
    <path
       inkscape:connector-curvature="0"
       id="path3027"
       style="font-size:40px;font-style:normal;font-variant:normal;font-weight:300;font-stretch:normal;text-align:start;line-height:125%;letter-spacing:0px;word-spacing:0px;writing-mode:lr-tb;text-anchor:start;fill:#b3b3b3;fill-opacity:1;stroke:none;font-family:Segoe UI Light;-inkscape-font-specification:'Segoe UI Light, Light'"
       d="m 200.58315,414.34042 0,-2.16797 c 0.67708,0.58594 1.49739,1.04818 2.46094,1.38672 0.96353,0.33855 1.79687,0.50782 2.5,0.50782 3.13801,0 4.70702,-1.28255 4.70703,-3.84766 -10e-6,-0.88541 -0.34507,-1.64062 -1.03516,-2.26563 -0.69011,-0.62499 -1.8099,-1.26952 -3.35937,-1.93359 -1.91407,-0.83332 -3.25847,-1.69595 -4.03321,-2.58789 -0.77474,-0.89191 -1.16211,-1.9759 -1.16211,-3.25195 0,-1.62759 0.62175,-2.94269 1.86524,-3.94532 1.24348,-1.00258 2.77668,-1.50388 4.59961,-1.5039 1.71874,2e-5 3.19009,0.35158 4.41406,1.05469 l 0,2.03125 c -1.48439,-0.96353 -3.02084,-1.4453 -4.60937,-1.44532 -1.31512,2e-5 -2.37631,0.34182 -3.1836,1.02539 -0.80729,0.68362 -1.21094,1.57229 -1.21094,2.66602 0,0.95053 0.25391,1.72202 0.76172,2.31445 0.50781,0.59246 1.6276,1.2728 3.35938,2.04102 2.08332,0.93751 3.51561,1.80665 4.29687,2.60742 0.78124,0.80079 1.17186,1.86524 1.17188,3.19336 -2e-5,1.58854 -0.59572,2.90039 -1.78711,3.93555 -1.19142,1.03515 -2.8353,1.55273 -4.93164,1.55273 -1.92709,0 -3.53516,-0.45573 -4.82422,-1.36719 z"
       inkscape:export-filename="D:\Workspace\Python\SeriesAnime\design\path3037.png"
       inkscape:export-xdpi="62.144432"
       inkscape:export-ydpi="62.144432" />
    <path
       inkscape:connector-curvature="0"
       id="path3029"
       style="font-size:40px;font-style:normal;font-variant:normal;font-weight:300;font-stretch:normal;text-align:start;line-height:125%;letter-spacing:0px;word-spacing:0px;writing-mode:lr-tb;text-anchor:start;fill:#008080;fill-opacity:1;stroke:none;font-family:Segoe UI Light;-inkscape-font-specification:'Segoe UI Light, Light'"
       d="m 246.73549,415.21933 -3.20312,-8.71094 -12.14844,0 -3.20312,8.71094 -2.12891,0 10.56641,-28.00781 1.83593,0 10.44922,28.00781 z m -8.59375,-23.4375 c -0.14324,-0.3906 -0.26043,-0.77472 -0.35156,-1.15234 -0.0912,-0.3255 -0.18881,-0.65102 -0.29297,-0.97657 l -0.0781,0 c -0.22137,0.8594 -0.43621,1.55602 -0.64453,2.08985 l -4.70704,12.98828 10.80079,0 z"
       inkscape:export-filename="D:\Workspace\Python\SeriesAnime\design\path3037.png"
       inkscape:export-xdpi="62.144432"
       inkscape:export-ydpi="62.144432" />
    <path
       inkscape:connector-curvature="0"
       id="path3031"
       style="font-size:40px;font-style:normal;font-variant:normal;font-weight:300;font-stretch:normal;text-align:start;line-height:125%;letter-spacing:0px;word-spacing:0px;writing-mode:lr-tb;text-anchor:start;fill:#4d4d4d;fill-opacity:1;stroke:none;font-family:Segoe UI Light;-inkscape-font-specification:'Segoe UI Light, Light'"
       d="m 266.85268,415.21933 0,-11.64063 c -2e-5,-4.80467 -1.73179,-7.20701 -5.19531,-7.20703 -1.9271,2e-5 -3.50912,0.7064 -4.7461,2.11914 -1.23698,1.41278 -1.85547,3.16083 -1.85546,5.24414 l 0,11.48438 -1.79688,0 0,-20 1.79688,0 0,3.63281 0.0781,0 c 1.45833,-2.74737 3.73697,-4.12107 6.83594,-4.12109 2.16144,2e-5 3.81509,0.71942 4.96094,2.1582 1.14581,1.43882 1.71873,3.49286 1.71875,6.16211 l 0,12.16797 z"
       inkscape:export-filename="D:\Workspace\Python\SeriesAnime\design\path3037.png"
       inkscape:export-xdpi="62.144432"
       inkscape:export-ydpi="62.144432" />
    <path
       inkscape:connector-curvature="0"
       id="path3033"
       style="font-size:40px;font-style:normal;font-variant:normal;font-weight:300;font-stretch:normal;text-align:start;line-height:125%;letter-spacing:0px;word-spacing:0px;writing-mode:lr-tb;text-anchor:start;fill:#4d4d4d;fill-opacity:1;stroke:none;font-family:Segoe UI Light;-inkscape-font-specification:'Segoe UI Light, Light'"
       d="m 275.54409,390.18027 c -0.39063,2e-5 -0.73568,-0.14321 -1.03516,-0.42969 -0.29948,-0.28643 -0.44922,-0.65102 -0.44922,-1.09375 0,-0.42966 0.15299,-0.77797 0.45899,-1.04492 0.30598,-0.2669 0.64778,-0.40036 1.02539,-0.40039 0.40364,3e-5 0.75846,0.13023 1.06445,0.39062 0.30598,0.26045 0.45898,0.61201 0.45898,1.05469 0,0.41669 -0.14974,0.77477 -0.44921,1.07422 -0.29949,0.2995 -0.65756,0.44924 -1.07422,0.44922 z m -0.87891,25.03906 0,-20 1.79688,0 0,20 z"
       inkscape:export-filename="D:\Workspace\Python\SeriesAnime\design\path3037.png"
       inkscape:export-xdpi="62.144432"
       inkscape:export-ydpi="62.144432" />
    <path
       inkscape:connector-curvature="0"
       id="path3035"
       style="font-size:40px;font-style:normal;font-variant:normal;font-weight:300;font-stretch:normal;text-align:start;line-height:125%;letter-spacing:0px;word-spacing:0px;writing-mode:lr-tb;text-anchor:start;fill:#4d4d4d;fill-opacity:1;stroke:none;font-family:Segoe UI Light;-inkscape-font-specification:'Segoe UI Light, Light'"
       d="m 307.94643,415.21933 0,-12.03125 c -3e-5,-2.51301 -0.39391,-4.27733 -1.18164,-5.29297 -0.78779,-1.01561 -2.03453,-1.52342 -3.74023,-1.52344 -1.57555,2e-5 -2.93622,0.67711 -4.08204,2.03125 -1.14585,1.35419 -1.71876,3.0534 -1.71875,5.09766 l 0,11.71875 -1.79687,0 0,-12.16797 c -2e-5,-4.45311 -1.69272,-6.67967 -5.07813,-6.67969 -1.62761,2e-5 -2.98177,0.68036 -4.0625,2.04102 -1.08073,1.36069 -1.62109,3.12176 -1.62109,5.2832 l 0,11.52344 -1.79687,0 0,-20 1.79687,0 0,3.32031 0.0781,0 c 1.39322,-2.53904 3.43098,-3.80857 6.11328,-3.80859 1.45832,2e-5 2.70506,0.41994 3.74023,1.25976 1.03514,0.83987 1.73501,1.94338 2.09961,3.31055 0.62498,-1.44529 1.52016,-2.56834 2.68555,-3.36914 1.16534,-0.80076 2.43162,-1.20115 3.79883,-1.20117 4.37497,2e-5 6.56247,2.70835 6.5625,8.125 l 0,12.36328 z"
       inkscape:export-filename="D:\Workspace\Python\SeriesAnime\design\path3037.png"
       inkscape:export-xdpi="62.144432"
       inkscape:export-ydpi="62.144432" />
    <path
       inkscape:connector-curvature="0"
       id="path3037"
       style="font-size:40px;font-style:normal;font-variant:normal;font-weight:300;font-stretch:normal;text-align:start;line-height:125%;letter-spacing:0px;word-spacing:0px;writing-mode:lr-tb;text-anchor:start;fill:#4d4d4d;fill-opacity:1;stroke:none;font-family:Segoe UI Light;-inkscape-font-specification:'Segoe UI Light, Light'"
       d="m 316.18862,405.29745 c -1e-5,2.74741 0.63476,4.89584 1.90429,6.44532 1.26953,1.54948 3.01106,2.32422 5.22461,2.32422 2.23957,0 4.42707,-0.82682 6.5625,-2.48047 l 0,1.91406 c -2.07032,1.47135 -4.38152,2.20703 -6.93359,2.20703 -2.57813,0 -4.66146,-0.92448 -6.25,-2.77344 -1.58854,-1.84895 -2.38281,-4.45963 -2.38281,-7.83203 0,-2.91665 0.83007,-5.37433 2.49023,-7.37304 1.66015,-1.99868 3.81835,-2.99803 6.47461,-2.99805 2.48697,2e-5 4.39452,0.87241 5.72266,2.61719 1.3281,1.7448 1.99217,4.12761 1.99219,7.14843 l 0,0.80078 z m 12.92969,-1.64062 c -0.0781,-2.30467 -0.63153,-4.09504 -1.66016,-5.37109 -1.02866,-1.27603 -2.44793,-1.91405 -4.25781,-1.91407 -1.87501,2e-5 -3.42775,0.62828 -4.65821,1.88477 -1.23047,1.25653 -1.98893,3.05665 -2.27539,5.40039 z"
       inkscape:export-xdpi="62.144432"
       inkscape:export-ydpi="62.144432" />
  </g>
</svg>
